<?xml version="1.0"?>
<svg xmlns="http://www.w3.org/2000/svg" height="512px" viewBox="0 0 512 512" width="512px" class=""><g transform="matrix(0.689449 0 0 0.689449 79.501 79.501)"><path d="m375.488281 364.46875-58.488281-214.628906-147.179688-57.621094c-1.550781-.609375-3.179687-.949219-4.820312-1.007812l-35.398438 96.617187-6.601562 18.171875 42 186.160156 147.179688 57.621094c1.550781.609375 3.179687.949219 4.820312 1.007812l41-18.789062 19-62zm0 0" fill="#d8d8fc" data-original="#D8D8FC" class=""/><path d="m165 91.210938v300.949218l-145.691406 43.199219c-9.617188 2.890625-19.308594-4.320313-19.308594-14.359375v-270c0-6.628906 4.339844-12.46875 10.691406-14.371094l149.347656-44.808594c1.511719-.449218 3.082032-.660156 4.640626-.621093.109374 0 .210937 0 .320312.011719zm0 0" fill="#f2f2fc" data-original="#F2F2FC"/><path d="m482 121v270c0 6.628906-4.339844 12.46875-10.691406 14.371094l-149.347656 44.808594c-1 .300781-2.019532.492187-3.039063.570312-.640625.058594-1.28125.070312-1.921875.039062v-300.949218l145.691406-43.199219c9.617188-2.890625 19.308594 4.320313 19.308594 14.359375zm0 0" fill="#f2f2fc" data-original="#F2F2FC"/><path d="m386.371094 271-53.140625 138.390625-16.089844 10.519531-.78125-.308594-151.359375-58.761718-23.839844-18.511719-58.660156-125.648437 44.621094-67.878907 37.878906-26.652343h.011719c.4375-.667969 151.988281 59.011718 151.988281 59.011718v.011719h.011719c.859375.6875 18.488281 10.726563 26.769531 15.4375zm0 0" fill="#5bc980" data-original="#5BC980" class=""/><path d="m30 162.160156v238.683594l135-40.007812v-238.683594zm0 0" fill="#7fe881" data-original="#7FE881"/><path d="m317 181.164062v238.683594l135-40.007812v-238.683594zm0 0" fill="#7fe881" data-original="#7FE881"/><path d="m317 299.800781-146.300781-57.601562c-1.800781-.898438-3.597657-1.199219-5.699219-1.199219l-10.625 25.625 10.625 5.574219 146.300781 57.597656c1.800781.902344 3.898438 1.203125 5.699219 1.203125l12.5-11.25zm0 0" fill="#d8d8fc" data-original="#D8D8FC" class=""/><path d="m160.199219 241.898438c1.5-.597657 3.300781-.898438 4.800781-.898438v31.199219l-.601562-.300781-64.199219 21.601562c-6 1.800781-10.199219 7.800781-10.199219 14.097656v38.402344c0 8.398438-6.597656 15-15 15s-15-6.601562-15-15v-38.402344c0-19.496094 12.300781-36.597656 30.902344-42.597656zm0 0" fill="#f2f2fc" data-original="#F2F2FC"/><path d="m422 271v15c0 24.898438-20.097656 45-45 45h-60v-31.199219l3 1.199219h57c8.402344 0 15-6.601562 15-15v-15c0-8.402344 6.597656-15 15-15s15 6.597656 15 15zm0 0" fill="#f2f2fc" data-original="#F2F2FC"/><path d="m75 331c-41.398438 0-75 33.601562-75 75 0 15.300781 4.5 30.300781 14.398438 44.097656l49.5 56.800782c2.699218 3.300781 6.902343 5.101562 11.101562 5.101562s8.402344-1.800781 11.101562-5.101562l50.398438-58c9-12.597657 13.5-27.597657 13.5-42.898438 0-41.398438-33.601562-75-75-75zm0 90c-8.402344 0-15-6.601562-15-15 0-8.402344 6.597656-15 15-15s15 6.597656 15 15c0 8.398438-6.597656 15-15 15zm0 0" fill="#f9568e" data-original="#F9568E"/><path d="m150 406c0 15.300781-4.5 30.300781-13.5 42.898438l-50.398438 58c-2.699218 3.300781-6.902343 5.101562-11.101562 5.101562v-91c8.402344 0 15-6.601562 15-15 0-8.402344-6.597656-15-15-15v-60c41.398438 0 75 33.601562 75 75zm0 0" fill="#db3271" data-original="#DB3271"/><path d="m407 0c-9.601562 0-19.5 1.199219-29.398438 3.898438-30.902343 8.699218-57 33.101562-68.402343 62.800781-12.597657 33.300781-8.398438 68.699219 9.601562 96.601562l75.601563 115.796875c2.996094 4.5 7.796875 6.902344 12.597656 6.902344s9.601562-2.402344 12.597656-6.902344l75.601563-115.796875c10.800781-17.101562 16.800781-36.902343 16.800781-57.300781 0-57.898438-47.101562-106-105-106zm0 151c-24.902344 0-45-20.101562-45-45 0-24.902344 20.097656-46 45-46s45 21.097656 45 46c0 24.898438-20.097656 45-45 45zm0 0" fill="#f9568e" data-original="#F9568E"/><path d="m512 106c0 20.398438-6 40.199219-16.800781 57.300781l-75.601563 115.796875c-2.996094 4.5-7.796875 6.902344-12.597656 6.902344v-135c24.902344 0 45-20.101562 45-45 0-24.902344-20.097656-46-45-46v-60c57.898438 0 105 48.101562 105 106zm0 0" fill="#db3271" data-original="#DB3271"/></g> </svg>
