<svg height="464pt" viewBox="0 0 464 464" width="464pt" xmlns="http://www.w3.org/2000/svg"><path d="m16 32h240v432h-240zm0 0" fill="#5aaae7"/><path d="m256 96h176v368h-176zm0 0" fill="#3d9ae2"/><path d="m88 368h96v96h-96zm0 0" fill="#e6e7e8"/><path d="m256 416h-72v-34.878906c13.601562 17.015625 34.214844 26.910156 56 26.878906 5.382812-.011719 10.746094-.601562 16-1.761719zm0 0" fill="#5aaae7"/><g fill="#e6e7e8"><path d="m360 208h32v32h-32zm0 0"/><path d="m296 208h32v32h-32zm0 0"/><path d="m360 144h32v32h-32zm0 0"/><path d="m296 144h32v32h-32zm0 0"/><path d="m56 272h32v32h-32zm0 0"/><path d="m120 272h32v32h-32zm0 0"/><path d="m184 208h32v32h-32zm0 0"/><path d="m120 208h32v32h-32zm0 0"/><path d="m56 208h32v32h-32zm0 0"/><path d="m56 144h32v32h-32zm0 0"/><path d="m120 144h32v32h-32zm0 0"/><path d="m184 144h32v32h-32zm0 0"/><path d="m184 80h32v32h-32zm0 0"/><path d="m120 80h32v32h-32zm0 0"/><path d="m56 80h32v32h-32zm0 0"/></g><path d="m272 0v32h-272v-32zm0 0" fill="#1a6fb0"/><path d="m456 416h-128c-4.417969 0-8 3.582031-8 8v32c0 4.417969 3.582031 8 8 8h128c4.417969 0 8-3.582031 8-8v-32c0-4.417969-3.582031-8-8-8zm0 0" fill="#ffa733"/><path d="m456 320h-128c-4.417969 0-8 3.582031-8 8v32c0 4.417969 3.582031 8 8 8h128c4.417969 0 8-3.582031 8-8v-32c0-4.417969-3.582031-8-8-8zm0 0" fill="#ffa733"/><path d="m312 416h-128c-4.417969 0-8 3.582031-8 8v32c0 4.417969 3.582031 8 8 8h128c4.417969 0 8-3.582031 8-8v-32c0-4.417969-3.582031-8-8-8zm0 0" fill="#ff9811"/><path d="m456 368h-128c-4.417969 0-8 3.582031-8 8v32c0 4.417969 3.582031 8 8 8h128c4.417969 0 8-3.582031 8-8v-32c0-4.417969-3.582031-8-8-8zm0 0" fill="#ff9811"/><path d="m456 272h-128c-4.417969 0-8 3.582031-8 8v32c0 4.417969 3.582031 8 8 8h128c4.417969 0 8-3.582031 8-8v-32c0-4.417969-3.582031-8-8-8zm0 0" fill="#ff9811"/><path d="m312 336c0 39.765625-32.234375 72-72 72s-72-32.234375-72-72 32.234375-72 72-72 72 32.234375 72 72zm0 0" fill="#ffd422"/><path d="m16 32h240v16h-240zm0 0" fill="#3d9ae2"/><path d="m400 416h16v24h-16zm0 0" fill="#ee8700"/><path d="m432 416h16v24h-16zm0 0" fill="#ee8700"/><path d="m336 416h16v24h-16zm0 0" fill="#ee8700"/><path d="m368 416h16v24h-16zm0 0" fill="#ee8700"/><path d="m256 416h16v24h-16zm0 0" fill="#cc7400"/><path d="m288 416h16v24h-16zm0 0" fill="#cc7400"/><path d="m192 416h16v24h-16zm0 0" fill="#cc7400"/><path d="m224 416h16v24h-16zm0 0" fill="#cc7400"/><path d="m400 368h16v24h-16zm0 0" fill="#cc7400"/><path d="m432 368h16v24h-16zm0 0" fill="#cc7400"/><path d="m336 368h16v24h-16zm0 0" fill="#cc7400"/><path d="m368 368h16v24h-16zm0 0" fill="#cc7400"/><path d="m400 320h16v24h-16zm0 0" fill="#ee8700"/><path d="m432 320h16v24h-16zm0 0" fill="#ee8700"/><path d="m336 320h16v24h-16zm0 0" fill="#ee8700"/><path d="m368 320h16v24h-16zm0 0" fill="#ee8700"/><path d="m400 272h16v24h-16zm0 0" fill="#cc7400"/><path d="m432 272h16v24h-16zm0 0" fill="#cc7400"/><path d="m336 272h16v24h-16zm0 0" fill="#cc7400"/><path d="m368 272h16v24h-16zm0 0" fill="#cc7400"/><path d="m240 328c-4.417969 0-8-3.582031-8-8s3.582031-8 8-8 8 3.582031 8 8h16c-.042969-10.132812-6.445312-19.148438-16-22.527344v-9.472656h-16v9.472656c-11.011719 3.878906-17.621094 15.132813-15.644531 26.640625 1.980469 11.507813 11.96875 19.910157 23.644531 19.886719 4.417969 0 8 3.582031 8 8s-3.582031 8-8 8-8-3.582031-8-8h-16c.042969 10.132812 6.445312 19.148438 16 22.527344v9.472656h16v-9.472656c11.011719-3.878906 17.621094-15.132813 15.644531-26.640625-1.980469-11.507813-11.96875-19.910157-23.644531-19.886719zm0 0" fill="#ff5023"/><path d="m112.558594 321.648438 2.777344-15.757813 31.515624 5.558594-2.78125 15.753906zm0 0" fill="#ff5023"/><path d="m143.835938 251.144531 11.316406-11.3125 22.625 22.628907-11.3125 11.3125zm0 0" fill="#ff5023"/><path d="m209.898438 211.339844 15.757812-2.777344 5.554688 31.511719-15.757813 2.777343zm0 0" fill="#ff5023"/></svg>